<?xml version="1.0" encoding="UTF-8" standalone="no"?>
<!-- Created with Inkscape (http://www.inkscape.org/) -->

<svg
   xmlns:dc="http://purl.org/dc/elements/1.1/"
   xmlns:cc="http://creativecommons.org/ns#"
   xmlns:rdf="http://www.w3.org/1999/02/22-rdf-syntax-ns#"
   xmlns:svg="http://www.w3.org/2000/svg"
   xmlns="http://www.w3.org/2000/svg"
   xmlns:sodipodi="http://sodipodi.sourceforge.net/DTD/sodipodi-0.dtd"
   xmlns:inkscape="http://www.inkscape.org/namespaces/inkscape"
   width="210mm"
   height="297mm"
   viewBox="0 0 744.09448819 1052.3622047"
   id="svg2"
   version="1.1"
   inkscape:version="0.91 r13725"
   sodipodi:docname="logo.svg"
   enable-background="new">
  <defs
     id="defs4">
    <clipPath
       clipPathUnits="userSpaceOnUse"
       id="clipPath5006">
      <path
         style="fill:#ffffff;stroke:#000000;stroke-width:1px;stroke-linecap:butt;stroke-linejoin:miter;stroke-opacity:1"
         d="M 297.995,283.6361 C 327.16165,172.86756 394.81876,126.24979 445.47727,51.301017 l 218.19295,-30.304576 -35.35534,178.796999 38.3858,189.90868 -365.67522,47.47717 c 53.08119,-28.43941 98.57151,-57.9807 134.35028,-91.92388 L 290.92393,343.2351 z"
         id="path5008"
         inkscape:connector-curvature="0"
         sodipodi:nodetypes="ccccccccc" />
    </clipPath>
  </defs>
  <sodipodi:namedview
     id="base"
     pagecolor="#ffffff"
     bordercolor="#666666"
     borderopacity="1.0"
     inkscape:pageopacity="0.0"
     inkscape:pageshadow="2"
     inkscape:zoom="0.35"
     inkscape:cx="117.95857"
     inkscape:cy="102.03889"
     inkscape:document-units="px"
     inkscape:current-layer="layer1"
     showgrid="false"
     inkscape:window-width="1920"
     inkscape:window-height="1017"
     inkscape:window-x="1912"
     inkscape:window-y="-8"
     inkscape:window-maximized="1" />
  <metadata
     id="metadata7">
    <rdf:RDF>
      <cc:Work
         rdf:about="">
        <dc:format>image/svg+xml</dc:format>
        <dc:type
           rdf:resource="http://purl.org/dc/dcmitype/StillImage" />
        <dc:title />
      </cc:Work>
    </rdf:RDF>
  </metadata>
  <g
     inkscape:label="F"
     inkscape:groupmode="layer"
     id="layer1">
    <path
       style="fill:#a4a4a4;fill-opacity:1;fill-rule:evenodd;stroke:none"
       d="M 93.543001,427.93893 C 213.85299,278.5595 500.53611,191.2851 579.42637,185.86996 c 125.94474,-8.64502 147.69784,33.34999 148.9616,54.2734 3.71858,61.56643 -89.85866,145.79614 -240.78291,178.73754 65.24652,8.91096 90.96585,28.98512 114.27566,52.19179 23.30981,23.20667 12.78193,78.25947 -33.43838,107.26004 -39.68608,24.90073 -143.50728,43.9779 -374.67272,16.96335 l -18.32016,-82.80891 c 80.89009,23.27799 183.43328,33.36747 244.30355,21.27011 44.56655,-8.85716 96.21895,-24.06532 28.83035,-50.19073 C 406.76895,467.35582 299.10341,453.90883 299.10341,453.90883 361.39615,418.5535 490.42803,362.3618 529.4597,323.68145 568.02226,285.46599 467.21938,304.0253 435.2563,316.29348 280.15194,375.82619 226.43558,416.03322 165.0298,503.55284 154.47961,488.3034 124.75711,460.70785 93.543001,427.93893 Z"
       id="path4002-6"
       inkscape:connector-curvature="0"
       sodipodi:nodetypes="cssczsccsscsscc"
       inkscape:export-filename="C:\Users\Viquoc\bitmap.png"
       inkscape:export-xdpi="300"
       inkscape:export-ydpi="300" />
    <path
       style="fill:#a4a4a4;fill-opacity:1;fill-rule:evenodd;stroke:none;stroke-width:1px;stroke-linecap:butt;stroke-linejoin:miter;stroke-opacity:1"
       d="m 40.57071,426.74945 c -8.516938,-40.57033 46.21185,-134.18412 77.22901,-72.95867 45.83069,84.83871 86.35392,182.97748 113.14999,262.73473 10.14794,32.73806 54.24212,191.91818 66.53978,277.09917 C 247.72745,845.10421 168.7214,710.79291 144.33784,665.13457 c 0,0 -74.52626,-142.77246 -103.76713,-238.38512 z"
       id="path4000"
       inkscape:connector-curvature="0"
       sodipodi:nodetypes="cccccc"
       inkscape:export-filename="C:\Users\Viquoc\bitmap.png"
       inkscape:export-xdpi="300"
       inkscape:export-ydpi="300" />
    <path
       style="fill:#ac1717;fill-opacity:1;fill-rule:evenodd;stroke:none"
       d="m 612.16992,184.71429 c -10.04479,-0.0206 -20.93682,0.34577 -32.74414,1.15625 -38.48501,2.64167 -126.42187,24.77231 -220.36914,64.08203 l -72.48047,135.3457 c 37.26915,-22.85213 84.21135,-44.25943 148.67969,-69.0039 31.96308,-12.26818 132.76568,-30.82874 94.20312,7.38672 -39.03167,38.68035 -168.06272,94.87318 -230.35546,130.22851 0,0 107.66605,13.44748 149.48046,29.65821 67.3886,26.12541 15.73648,41.33229 -28.83007,50.18945 -24.63347,4.89566 -56.09547,6.15405 -90.18164,4.37891 l 62.99414,70.29882 c 97.21268,-0.22554 150.09988,-13.92793 175.87695,-30.10156 46.22031,-29.00057 56.74731,-84.0531 33.4375,-107.25976 C 578.57105,447.86699 552.85199,427.79127 487.60547,418.88031 638.52972,385.93891 732.10725,301.7104 728.38867,240.14398 727.24339,221.18214 709.2696,184.9134 612.16992,184.71429 Z"
       id="path4002"
       inkscape:connector-curvature="0" />
  </g>
  <g
     id="g4974"
     inkscape:groupmode="layer"
     inkscape:label="E"
     style="display:inline" />
</svg>
